<svg width="59" height="89" viewBox="0 0 59 89" fill="none" xmlns="http://www.w3.org/2000/svg">
<circle cx="29.5" cy="29.5" r="29.5" fill="#1DA1F2"/>
<path d="M29.5 89L3.95225 44.75L55.0477 44.75L29.5 89Z" fill="#1DA1F2"/>
<path d="M43.3236 20.7997C43.3447 21.1721 43.3447 21.5444 43.3447 21.9201C43.3447 33.3689 36.1754 46.5728 23.0659 46.5728V46.5659C19.1933 46.5728 15.4012 45.2243 12.1411 42.6816C12.7042 42.764 13.2701 42.8051 13.8375 42.8069C17.0468 42.8103 20.1643 41.5012 22.6891 39.0907C19.6393 39.0203 16.9649 36.6029 16.0306 33.0738C17.099 33.3243 18.1998 33.2728 19.2484 32.9245C15.9234 32.1078 13.5312 28.5564 13.5312 24.4319C13.5312 24.3941 13.5312 24.3581 13.5312 24.3221C14.522 24.9929 15.6312 25.3652 16.7659 25.4064C13.6343 22.862 12.6689 17.7973 14.5601 13.8375C18.1786 19.2505 23.5175 22.5412 29.2488 22.8895C28.6744 19.8801 29.4591 16.7267 31.3107 14.6113C34.1812 11.3309 38.6959 11.499 41.3943 14.987C42.9905 14.6044 44.5203 13.8924 45.9203 12.8836C45.3883 14.8892 44.2748 16.5929 42.7873 17.6755C44.2 17.473 45.5802 17.0132 46.88 16.3115C45.9232 18.0547 44.7179 19.573 43.3236 20.7997Z" fill="white"/>
</svg>
